<?xml version="1.0" encoding="UTF-8"?>
<svg width="752pt" height="752pt" version="1.1" viewBox="0 0 752 752" xmlns="http://www.w3.org/2000/svg">
 <g>
  <path d="m478.78 265.67h-205.56c-60.836 0-110.33 49.492-110.33 110.33s49.492 110.33 110.33 110.33h205.56c60.832 0 110.33-49.496 110.33-110.33s-49.496-110.33-110.33-110.33zm0 205.57h-205.56c-52.52 0-95.25-42.723-95.25-95.242s42.73-95.242 95.25-95.242h205.56c52.523 0 95.25 42.723 95.25 95.242 0.003906 52.527-42.723 95.242-95.25 95.242z"/>
  <path d="m478.78 311.36c-35.637 0-64.633 29.004-64.633 64.645s28.996 64.645 64.633 64.645c35.645 0 64.645-29.004 64.645-64.645 0-35.645-28.996-64.645-64.645-64.645zm0 114.21c-27.324 0-49.559-22.219-49.559-49.566 0-27.332 22.234-49.566 49.559-49.566 27.332 0 49.57 22.23 49.57 49.566 0 27.34-22.234 49.566-49.57 49.566z"/>
 </g>
</svg>
